<mxfile host="app.diagrams.net" agent="Mozilla/5.0 (Windows NT 10.0; Win64; x64) AppleWebKit/537.36 (KHTML, like Gecko) Chrome/134.0.0.0 Safari/537.36" version="26.1.3">
  <diagram name="Page-1" id="d4cGZ_fmJUMX6lkNEKHp">
    <mxGraphModel dx="859" dy="539" grid="1" gridSize="10" guides="1" tooltips="1" connect="1" arrows="1" fold="1" page="1" pageScale="1" pageWidth="850" pageHeight="1100" math="0" shadow="0">
      <root>
        <mxCell id="0" />
        <mxCell id="1" parent="0" />
        <mxCell id="Liyd7LdIzqknfs-HzHna-25" style="edgeStyle=orthogonalEdgeStyle;rounded=0;orthogonalLoop=1;jettySize=auto;html=1;exitX=1;exitY=0.75;exitDx=0;exitDy=0;entryX=0;entryY=0.5;entryDx=0;entryDy=0;" edge="1" parent="1" source="Liyd7LdIzqknfs-HzHna-13" target="Liyd7LdIzqknfs-HzHna-15">
          <mxGeometry relative="1" as="geometry">
            <Array as="points">
              <mxPoint x="240" y="245" />
              <mxPoint x="240" y="320" />
            </Array>
          </mxGeometry>
        </mxCell>
        <mxCell id="Liyd7LdIzqknfs-HzHna-27" style="edgeStyle=orthogonalEdgeStyle;rounded=0;orthogonalLoop=1;jettySize=auto;html=1;exitX=1;exitY=1;exitDx=0;exitDy=0;entryX=0;entryY=0.5;entryDx=0;entryDy=0;" edge="1" parent="1" source="Liyd7LdIzqknfs-HzHna-13" target="Liyd7LdIzqknfs-HzHna-17">
          <mxGeometry relative="1" as="geometry">
            <Array as="points">
              <mxPoint x="190" y="260" />
              <mxPoint x="190" y="415" />
            </Array>
          </mxGeometry>
        </mxCell>
        <mxCell id="Liyd7LdIzqknfs-HzHna-13" value="User" style="rounded=0;whiteSpace=wrap;html=1;" vertex="1" parent="1">
          <mxGeometry x="80" y="200" width="120" height="60" as="geometry" />
        </mxCell>
        <mxCell id="Liyd7LdIzqknfs-HzHna-14" value="User Authentication" style="ellipse;whiteSpace=wrap;html=1;" vertex="1" parent="1">
          <mxGeometry x="304" y="213" width="120" height="40" as="geometry" />
        </mxCell>
        <mxCell id="Liyd7LdIzqknfs-HzHna-15" value="Browser Footwear" style="ellipse;whiteSpace=wrap;html=1;" vertex="1" parent="1">
          <mxGeometry x="305" y="300" width="120" height="40" as="geometry" />
        </mxCell>
        <mxCell id="Liyd7LdIzqknfs-HzHna-17" value="Order Placing" style="ellipse;whiteSpace=wrap;html=1;" vertex="1" parent="1">
          <mxGeometry x="303" y="395" width="120" height="40" as="geometry" />
        </mxCell>
        <mxCell id="Liyd7LdIzqknfs-HzHna-18" value="Order tracking" style="ellipse;whiteSpace=wrap;html=1;" vertex="1" parent="1">
          <mxGeometry x="58" y="355" width="120" height="40" as="geometry" />
        </mxCell>
        <mxCell id="Liyd7LdIzqknfs-HzHna-19" value="usersretailer" style="strokeWidth=2;html=1;shape=mxgraph.flowchart.database;whiteSpace=wrap;fontSize=11;" vertex="1" parent="1">
          <mxGeometry x="518" y="205" width="80" height="50" as="geometry" />
        </mxCell>
        <mxCell id="Liyd7LdIzqknfs-HzHna-20" value="footwear_models" style="strokeWidth=2;html=1;shape=mxgraph.flowchart.database;whiteSpace=wrap;fontSize=10;" vertex="1" parent="1">
          <mxGeometry x="518" y="295" width="80" height="50" as="geometry" />
        </mxCell>
        <mxCell id="Liyd7LdIzqknfs-HzHna-21" value="&lt;font style=&quot;font-size: 10px;&quot;&gt;footwear_stock&lt;/font&gt;" style="strokeWidth=2;html=1;shape=mxgraph.flowchart.database;whiteSpace=wrap;" vertex="1" parent="1">
          <mxGeometry x="521" y="395" width="80" height="50" as="geometry" />
        </mxCell>
        <mxCell id="Liyd7LdIzqknfs-HzHna-30" value="" style="edgeStyle=orthogonalEdgeStyle;rounded=0;orthogonalLoop=1;jettySize=auto;html=1;" edge="1" parent="1">
          <mxGeometry relative="1" as="geometry">
            <mxPoint x="115.03703703703695" y="420" as="sourcePoint" />
            <mxPoint x="117" y="395" as="targetPoint" />
          </mxGeometry>
        </mxCell>
        <mxCell id="Liyd7LdIzqknfs-HzHna-22" value="orders" style="strokeWidth=2;html=1;shape=mxgraph.flowchart.database;whiteSpace=wrap;" vertex="1" parent="1">
          <mxGeometry x="76" y="420" width="80" height="50" as="geometry" />
        </mxCell>
        <mxCell id="Liyd7LdIzqknfs-HzHna-26" style="edgeStyle=orthogonalEdgeStyle;rounded=0;orthogonalLoop=1;jettySize=auto;html=1;exitX=1;exitY=0.5;exitDx=0;exitDy=0;entryX=0;entryY=0.5;entryDx=0;entryDy=0;entryPerimeter=0;" edge="1" parent="1" source="Liyd7LdIzqknfs-HzHna-15" target="Liyd7LdIzqknfs-HzHna-20">
          <mxGeometry relative="1" as="geometry" />
        </mxCell>
        <mxCell id="Liyd7LdIzqknfs-HzHna-28" style="edgeStyle=orthogonalEdgeStyle;rounded=0;orthogonalLoop=1;jettySize=auto;html=1;exitX=1;exitY=0.5;exitDx=0;exitDy=0;entryX=0;entryY=0.406;entryDx=0;entryDy=0;entryPerimeter=0;" edge="1" parent="1" source="Liyd7LdIzqknfs-HzHna-17" target="Liyd7LdIzqknfs-HzHna-21">
          <mxGeometry relative="1" as="geometry" />
        </mxCell>
        <mxCell id="Liyd7LdIzqknfs-HzHna-29" style="edgeStyle=orthogonalEdgeStyle;rounded=0;orthogonalLoop=1;jettySize=auto;html=1;exitX=0.5;exitY=1;exitDx=0;exitDy=0;exitPerimeter=0;entryX=0.5;entryY=1;entryDx=0;entryDy=0;entryPerimeter=0;" edge="1" parent="1" source="Liyd7LdIzqknfs-HzHna-21" target="Liyd7LdIzqknfs-HzHna-22">
          <mxGeometry relative="1" as="geometry" />
        </mxCell>
        <mxCell id="Liyd7LdIzqknfs-HzHna-32" style="edgeStyle=orthogonalEdgeStyle;rounded=0;orthogonalLoop=1;jettySize=auto;html=1;entryX=0.003;entryY=0.563;entryDx=0;entryDy=0;entryPerimeter=0;" edge="1" parent="1" source="Liyd7LdIzqknfs-HzHna-14" target="Liyd7LdIzqknfs-HzHna-19">
          <mxGeometry relative="1" as="geometry">
            <mxPoint x="385" y="233" as="sourcePoint" />
            <mxPoint x="501" y="233" as="targetPoint" />
          </mxGeometry>
        </mxCell>
        <mxCell id="Liyd7LdIzqknfs-HzHna-34" style="edgeStyle=orthogonalEdgeStyle;rounded=0;orthogonalLoop=1;jettySize=auto;html=1;exitX=1;exitY=0.5;exitDx=0;exitDy=0;entryX=-0.012;entryY=0.525;entryDx=0;entryDy=0;entryPerimeter=0;" edge="1" parent="1" target="Liyd7LdIzqknfs-HzHna-14">
          <mxGeometry relative="1" as="geometry">
            <mxPoint x="200" y="233" as="sourcePoint" />
            <mxPoint x="290.03999999999996" y="233.07999999999998" as="targetPoint" />
          </mxGeometry>
        </mxCell>
        <mxCell id="Liyd7LdIzqknfs-HzHna-35" value="user login" style="text;strokeColor=none;align=center;fillColor=none;html=1;verticalAlign=middle;whiteSpace=wrap;rounded=0;" vertex="1" parent="1">
          <mxGeometry x="222" y="211" width="60" height="30" as="geometry" />
        </mxCell>
        <mxCell id="Liyd7LdIzqknfs-HzHna-36" value="validate user" style="text;strokeColor=none;align=center;fillColor=none;html=1;verticalAlign=middle;whiteSpace=wrap;rounded=0;" vertex="1" parent="1">
          <mxGeometry x="423" y="215" width="79" height="20" as="geometry" />
        </mxCell>
        <mxCell id="Liyd7LdIzqknfs-HzHna-38" value="Text" style="text;strokeColor=none;align=center;fillColor=none;html=1;verticalAlign=middle;whiteSpace=wrap;rounded=0;" vertex="1" parent="1">
          <mxGeometry x="270" y="60" width="60" height="30" as="geometry" />
        </mxCell>
        <mxCell id="Liyd7LdIzqknfs-HzHna-39" value="fetch model" style="text;strokeColor=none;align=center;fillColor=none;html=1;verticalAlign=middle;whiteSpace=wrap;rounded=0;" vertex="1" parent="1">
          <mxGeometry x="428" y="298" width="80" height="30" as="geometry" />
        </mxCell>
        <mxCell id="Liyd7LdIzqknfs-HzHna-40" value="browse" style="text;strokeColor=none;align=center;fillColor=none;html=1;verticalAlign=middle;whiteSpace=wrap;rounded=0;" vertex="1" parent="1">
          <mxGeometry x="238" y="295" width="60" height="30" as="geometry" />
        </mxCell>
        <mxCell id="Liyd7LdIzqknfs-HzHna-41" value="add to cart" style="text;strokeColor=none;align=center;fillColor=none;html=1;verticalAlign=middle;whiteSpace=wrap;rounded=0;" vertex="1" parent="1">
          <mxGeometry x="219" y="390" width="60" height="30" as="geometry" />
        </mxCell>
        <mxCell id="Liyd7LdIzqknfs-HzHna-42" value="check stock&lt;div&gt;and order&lt;/div&gt;" style="text;strokeColor=none;align=center;fillColor=none;html=1;verticalAlign=middle;whiteSpace=wrap;rounded=0;" vertex="1" parent="1">
          <mxGeometry x="414" y="399" width="110" height="30" as="geometry" />
        </mxCell>
        <mxCell id="Liyd7LdIzqknfs-HzHna-43" value="update order status" style="text;strokeColor=none;align=center;fillColor=none;html=1;verticalAlign=middle;whiteSpace=wrap;rounded=0;" vertex="1" parent="1">
          <mxGeometry x="280" y="464" width="110" height="30" as="geometry" />
        </mxCell>
        <mxCell id="Liyd7LdIzqknfs-HzHna-44" style="edgeStyle=orthogonalEdgeStyle;rounded=0;orthogonalLoop=1;jettySize=auto;html=1;exitX=0.5;exitY=0;exitDx=0;exitDy=0;entryX=0.314;entryY=1.022;entryDx=0;entryDy=0;entryPerimeter=0;" edge="1" parent="1" source="Liyd7LdIzqknfs-HzHna-18" target="Liyd7LdIzqknfs-HzHna-13">
          <mxGeometry relative="1" as="geometry" />
        </mxCell>
      </root>
    </mxGraphModel>
  </diagram>
</mxfile>
